<svg width="1193" height="170" viewBox="0 0 1193 170" fill="none" xmlns="http://www.w3.org/2000/svg">
<path d="M112.414 32.5836H34.1584V67.8147H105.92V100.398H34.1991V167.734H0.000244141V0H112.414V32.5836Z" fill="url(#paint0_linear_1314_84)"/>
<path d="M142.286 52.7253C155.518 39.6171 171.701 33.0665 190.835 33.0732C209.969 33.08 226.192 39.6307 239.506 52.7253C252.84 65.8198 259.51 82.1863 259.517 101.825C259.517 121.64 252.938 138.054 239.78 151.067C226.623 164.08 210.318 170.597 190.865 170.617C171.576 170.617 155.352 164.066 142.194 150.965C129.037 137.864 122.461 121.484 122.468 101.825C122.468 82.1863 129.074 65.8198 142.286 52.7253ZM215.115 75.7273C208.664 69.0137 200.571 65.6569 190.835 65.6569C181.099 65.6569 173.009 69.0137 166.565 75.7273C160.102 82.4341 156.87 91.14 156.87 101.845C156.87 112.55 160.102 121.256 166.565 127.963C173.022 134.67 181.112 138.027 190.835 138.033C200.558 138.04 208.651 134.683 215.115 127.963C221.565 121.249 224.793 112.543 224.8 101.845C224.807 91.1468 221.588 82.4409 215.145 75.7273H215.115Z" fill="url(#paint1_linear_1314_84)"/>
<path d="M880.696 170.617C865.836 170.617 852.753 167.635 841.447 161.673C830.302 155.711 821.661 147.595 815.524 137.327C809.386 126.893 806.317 115.051 806.317 101.801C806.317 88.3862 809.305 76.5444 815.281 66.2759C821.419 55.8419 829.737 47.7265 840.236 41.9298C850.734 35.9675 862.606 32.9863 875.85 32.9863C888.61 32.9863 900.078 35.8019 910.253 41.4329C920.59 46.8984 928.747 54.8482 934.723 65.2822C940.699 75.5506 943.687 87.8893 943.687 102.298C943.687 103.789 943.607 105.528 943.445 107.515C943.284 109.337 943.122 111.076 942.961 112.732H837.086V90.1252H923.094L908.557 96.8328C908.557 89.8768 907.185 83.8316 904.439 78.6974C901.693 73.5632 897.897 69.5883 893.052 66.7728C888.206 63.7916 882.553 62.301 876.092 62.301C869.632 62.301 863.898 63.7916 858.891 66.7728C854.045 69.5883 850.25 73.646 847.504 78.9459C844.758 84.0801 843.385 90.208 843.385 97.3297V103.292C843.385 110.579 844.92 117.038 847.988 122.67C851.219 128.135 855.661 132.358 861.314 135.339C867.128 138.155 873.912 139.563 881.665 139.563C888.61 139.563 894.667 138.486 899.835 136.333C905.166 134.18 910.011 130.951 914.372 126.644L934.481 149.003C928.505 155.959 920.994 161.342 911.949 165.151C902.904 168.795 892.486 170.617 880.696 170.617Z" fill="url(#paint2_linear_1314_84)"/>
<path d="M352.083 33.0732C354.641 33.0945 357.196 33.2543 359.736 33.5518V68.7727C356.23 68.457 353.435 68.2941 351.372 68.2941C339.251 68.2941 329.484 71.4507 322.072 77.7637C314.659 84.0768 310.95 94.5002 310.943 109.034V167.746H276.744V35.9447H310.943V58.9467C319.08 41.6977 332.794 33.0732 352.083 33.0732Z" fill="url(#paint3_linear_1314_84)"/>
<path d="M534.779 33.0732C548.784 33.0732 559.851 37.6248 567.982 46.7278C576.112 55.8309 580.177 68.3892 580.177 84.4027V167.796H546.019V91.7849C546.019 83.1502 544.227 76.6369 540.643 72.2449C537.059 67.8529 531.266 65.6569 523.264 65.6569C514.334 65.6569 507.559 68.4944 502.938 74.1694C498.317 79.8444 496.007 87.9495 496.007 98.4849V167.725H461.828V91.7849C461.828 83.1502 460.036 76.6369 456.452 72.2449C452.868 67.8529 447.088 65.6569 439.114 65.6569C430.184 65.6569 423.368 68.4944 418.665 74.1694C413.963 79.8444 411.609 87.9495 411.602 98.4849L411.846 167.725H377.403V35.9447H411.846V53.438C421.406 39.8615 434.401 33.0732 450.832 33.0732C469.986 33.0732 483.289 41.3956 490.742 58.0405C500.966 41.4024 515.645 33.08 534.779 33.0732Z" fill="url(#paint4_linear_1314_84)"/>
<path d="M1036.19 33.0732C1038.75 33.0948 1041.31 33.2545 1043.85 33.5518V68.7727C1040.34 68.4536 1037.55 68.2941 1035.48 68.2941C1023.35 68.2941 1013.59 71.4507 1006.18 77.7637C998.775 84.0768 995.069 94.5002 995.062 109.034V167.746H960.853V35.9447H995.062V58.9467C1003.19 41.6977 1016.9 33.0732 1036.19 33.0732Z" fill="url(#paint5_linear_1314_84)"/>
<path d="M1192.6 167.745H1148.82L1095.01 110.235V167.745H1060.81V0H1095.01V90.8167L1145 35.9438H1188.53L1128.5 98.7692L1192.6 167.745Z" fill="url(#paint6_linear_1314_84)"/>
<path d="M833.114 0.0107422L752.074 157.797L746.941 167.735H715.08L710.009 157.797H710.029L731.026 116.864V116.833L757.714 64.8828L791.049 0.0107422H833.114Z" fill="url(#paint7_linear_1314_84)"/>
<path d="M731.026 116.863L710.029 157.796H710.009V157.776L730.995 116.863H731.026Z" fill="#FFCE00"/>
<path d="M661.101 116.813V116.863L640.084 157.827L595.539 71.2158H637.695L645.836 87.1003L661.101 116.813Z" fill="url(#paint8_linear_1314_84)"/>
<path d="M696.075 48.805L675.007 89.7483L646.083 33.4805H688.199L691.268 39.539L696.075 48.805Z" fill="url(#paint9_linear_1314_84)"/>
<path d="M731.023 116.833V116.864H730.992L710.005 157.776L696.102 130.763L696.072 130.701L717.069 89.7988H717.12L731.023 116.833Z" fill="url(#paint10_linear_1314_84)"/>
<g filter="url(#filter0_d_1314_84)">
<path d="M731.026 116.863L710.029 157.796H710.009V157.776L730.995 116.863H731.026Z" fill="black"/>
</g>
<path d="M696.076 130.701L682.214 157.827L677.071 167.765H645.2L640.118 157.858L661.135 116.894L668.077 103.372L674.967 89.7985V89.7374L696.076 130.701ZM721.128 0L696.076 48.8042L717.073 89.7985H717.124L763.203 0H721.128Z" fill="url(#paint11_linear_1314_84)"/>
<path d="M717.073 89.799L696.076 130.702L675.008 89.7481L696.076 48.8047L717.073 89.799Z" fill="#31564F"/>
<defs>
<filter id="filter0_d_1314_84" x="702.822" y="116.863" width="35.39" height="55.3062" filterUnits="userSpaceOnUse" color-interpolation-filters="sRGB">
<feFlood flood-opacity="0" result="BackgroundImageFix"/>
<feColorMatrix in="SourceAlpha" type="matrix" values="0 0 0 0 0 0 0 0 0 0 0 0 0 0 0 0 0 0 127 0" result="hardAlpha"/>
<feOffset dy="7.18631"/>
<feGaussianBlur stdDeviation="3.59315"/>
<feComposite in2="hardAlpha" operator="out"/>
<feColorMatrix type="matrix" values="0 0 0 0 0 0 0 0 0 0 0 0 0 0 0 0 0 0 0.25 0"/>
<feBlend mode="normal" in2="BackgroundImageFix" result="effect1_dropShadow_1314_84"/>
<feBlend mode="normal" in="SourceGraphic" in2="effect1_dropShadow_1314_84" result="shape"/>
</filter>
<linearGradient id="paint0_linear_1314_84" x1="56.2073" y1="0" x2="56.2073" y2="167.734" gradientUnits="userSpaceOnUse">
<stop stop-color="#E4E4E7"/>
<stop offset="1" stop-color="#ECECEC"/>
</linearGradient>
<linearGradient id="paint1_linear_1314_84" x1="190.992" y1="33.0732" x2="190.992" y2="170.617" gradientUnits="userSpaceOnUse">
<stop stop-color="#E4E4E7"/>
<stop offset="1" stop-color="#ECECEC"/>
</linearGradient>
<linearGradient id="paint2_linear_1314_84" x1="875.002" y1="32.9863" x2="875.002" y2="170.617" gradientUnits="userSpaceOnUse">
<stop stop-color="#E4E4E7"/>
<stop offset="1" stop-color="#ECECEC"/>
</linearGradient>
<linearGradient id="paint3_linear_1314_84" x1="318.24" y1="33.0732" x2="318.24" y2="167.746" gradientUnits="userSpaceOnUse">
<stop stop-color="#E4E4E7"/>
<stop offset="1" stop-color="#ECECEC"/>
</linearGradient>
<linearGradient id="paint4_linear_1314_84" x1="478.79" y1="33.0732" x2="478.79" y2="167.796" gradientUnits="userSpaceOnUse">
<stop stop-color="#E4E4E7"/>
<stop offset="1" stop-color="#ECECEC"/>
</linearGradient>
<linearGradient id="paint5_linear_1314_84" x1="1002.35" y1="33.0732" x2="1002.35" y2="167.746" gradientUnits="userSpaceOnUse">
<stop stop-color="#E4E4E7"/>
<stop offset="1" stop-color="#ECECEC"/>
</linearGradient>
<linearGradient id="paint6_linear_1314_84" x1="1126.7" y1="0" x2="1126.7" y2="167.745" gradientUnits="userSpaceOnUse">
<stop stop-color="#E4E4E7"/>
<stop offset="1" stop-color="#ECECEC"/>
</linearGradient>
<linearGradient id="paint7_linear_1314_84" x1="771.556" y1="167.735" x2="771.556" y2="0.0107422" gradientUnits="userSpaceOnUse">
<stop stop-color="#02B361"/>
<stop offset="1" stop-color="#06D77B"/>
</linearGradient>
<linearGradient id="paint8_linear_1314_84" x1="628.32" y1="71.2158" x2="628.32" y2="157.827" gradientUnits="userSpaceOnUse">
<stop stop-color="#E4E4E7"/>
<stop offset="1" stop-color="#ECECEC"/>
</linearGradient>
<linearGradient id="paint9_linear_1314_84" x1="671.079" y1="33.4805" x2="671.079" y2="89.7484" gradientUnits="userSpaceOnUse">
<stop stop-color="#E4E4E7"/>
<stop offset="1" stop-color="#ECECEC"/>
</linearGradient>
<linearGradient id="paint10_linear_1314_84" x1="713.547" y1="89.7988" x2="713.547" y2="157.776" gradientUnits="userSpaceOnUse">
<stop stop-color="#E4E4E7"/>
<stop offset="1" stop-color="#ECECEC"/>
</linearGradient>
<linearGradient id="paint11_linear_1314_84" x1="701.646" y1="167.735" x2="701.646" y2="0.0101771" gradientUnits="userSpaceOnUse">
<stop stop-color="#02B361"/>
<stop offset="1" stop-color="#06D77B"/>
</linearGradient>
</defs>
</svg>
